<svg xmlns="http://www.w3.org/2000/svg" viewBox="0 0 210 60" style="enable-background:new 0 0 210 60" xml:space="preserve"><path style="fill:#4be6b1" d="M0 30h210v30H0z"/><path d="M65.1 3.7C59 3.7 54 8.9 54 15.2s5 11.5 11.1 11.5 11-5.2 11-11.5-4.9-11.5-11-11.5zm0 20.8c-4.2 0-6.8-3.5-6.8-9.3 0-5.8 2.5-9.3 6.8-9.3 4.2 0 6.7 3.5 6.7 9.3 0 5.8-2.5 9.3-6.7 9.3zm12-18.3h8.1v20.2h4V6.2h8.2V4H77.1zM101.5 4h4.1v22.4h-4.1zm26.1 16.1c-1.4 3.8-4.6 4.3-6.5 4.3-4.3 0-6.8-3.5-6.8-9.2s2.5-9.2 6.8-9.2c3.1 0 5.4 1.6 6.4 4.4l.4 1.1 2-1-.3-.9c-1.4-3.7-4.5-5.8-8.6-5.8-6.1 0-10.9 5.1-10.9 11.5 0 6.5 4.7 11.5 10.9 11.5 4.1 0 7.3-2.1 8.7-5.8l.3-1-2-1-.4 1.1zm45.5 2.3-1.2-3.4c-.5-1.2-1.3-2.2-2.5-3 2.1-.9 4-2.7 4-5.5 0-4-3.3-6.5-8.8-6.5h-8.3v22.4h4.1v-9.5h3.6c2.6 0 3.5 1 4.2 3.1l1.2 3.2c.4 1.2.8 2.1 1.3 2.8l.3.4h5.5l-1.9-1.8c-.8-.4-1.2-1.2-1.5-2.2zM160.2 6.2h4c3.4 0 4.9 1.3 4.9 4.3 0 2.9-1.5 4.2-4.9 4.2h-4V6.2zM179.3 4h4.1v22.4h-4.1zm19.7-.3c-6.1 0-11.1 5.2-11.1 11.5s5 11.5 11.1 11.5 11-5.2 11-11.5-5-11.5-11-11.5zm0 2.2c4.2 0 6.7 3.5 6.7 9.3 0 5.8-2.5 9.3-6.7 9.3s-6.8-3.5-6.8-9.3c0-5.8 2.5-9.3 6.8-9.3zM11.1 3.7C5 3.7 0 8.9 0 15.2s5 11.5 11.1 11.5 11-5.2 11-11.5-4.9-11.5-11-11.5zm0 20.8c-4.2 0-6.8-3.5-6.8-9.3 0-5.8 2.5-9.3 6.8-9.3 4.2 0 6.7 3.5 6.7 9.3 0 5.8-2.5 9.3-6.7 9.3zm34.2-11.7c2.2-1.1 3.8-3.1 3.8-5.7 0-4.5-3.6-7.1-9.8-7.1H27.6v26.6h12.7c6.1 0 9.9-2.9 9.9-7.5 0-3.1-2.1-5.2-4.9-6.3zm-5.8-1h-7.3V2.2H39c3.9 0 5.5 1.5 5.5 4.9.1 3.3-1.5 4.7-5 4.7zm-7.3 12.6V14h7.2c2.3 0 6.1.7 6.1 5.2 0 3.7-1.7 5.2-5.6 5.2h-7.7zM144.8.5h-2.4l-11.3 25.9h2.4l3.3-7.6h8.1l3.5 7.6h4.4L143 4.8l1.8-4.3zm-7 16.1 3-6.9 3.1 6.9h-6.1z" style="fill:#fff"/><path d="M72.1 35.6h-2.2l-.8 4.6h-2.2l-.3 1.9h2.1l-1.8 10.1h2.3L71 42.1h2.6l.3-1.9h-2.6zM79.4 49l-2.1-8.8h-2.4l2.8 11.7-3.6 6.2h2.3l10.7-17.9h-2.4zm-60.1-6c2.7-.7 3.9-2 3.9-3.9S21.9 35 15.6 35H6.3L9 36.6v14.8H7.1v.9h9.6c4.4 0 7.4-1.9 7.4-4.8.1-2.3-1.8-4-4.8-4.5zm-1 4.6c0 2.7-1 3.8-3.4 3.8h-.2v-7.9h.3c2.1 0 3.3 1.6 3.3 4.1zm-3.5-4.9h-.2v-6.8h.1c1.7 0 2.6 1.1 2.6 3.4s-.8 3.4-2.5 3.4zm21.1 7c-.2 0-.4.1-.6.1-1.3 0-2.8-.7-4.1-1.8 2.6-1.1 4.1-2.8 4.1-4.8 0-1.9-1.7-3.2-4-3.2-3.6 0-6.3 2.7-6.3 6.5 0 3.6 2.6 6.2 6.3 6.2 2.2 0 3.9-.8 4.9-2.5l.1-.2-.3-.3h-.1zm-7.6-7.4c0-.4.1-1.1.7-1.1.8 0 2.1 1.6 2.1 3.5 0 1.1-.2 1.9-.7 2.6-1.3-1.5-2.1-3.3-2.1-5zm21.8 7.3c-.4.9-.9 1.4-1.4 1.4-.1 0-.3 0-.3-.4 0-.2 0-.4.1-.6L51 39.8h-4l-.5 1.8c-.5-1.2-1.6-2-3-2-3.7 0-6.8 3.7-6.8 8.3 0 2.8 1.7 4.7 4.1 4.7 1.4 0 2.7-.7 3.7-1.9.3 1.2 1.3 1.9 2.8 1.9 1.7 0 2.9-.8 3.7-2.5l.1-.3-.8-.5-.2.3zm-9.3-.9c0-3.7 1.8-7.3 3.7-7.3 1 0 1.3 1 1.3 1.9 0 .5-.1 1-.2 1.5l-.8 3.4c-.5 1.4-1.6 2.8-2.8 2.8-.3-.2-1.2-.2-1.2-2.3zm23.7.9c-.3.6-.8 1.4-1.4 1.4-.2 0-.3 0-.3-.4 0-.2 0-.4.1-.6l2.5-10.1h-4.2l-1.9 7.8c-.6 2.1-2 3.4-3.1 3.4-.4 0-.8-.1-.8-.9 0-.3 0-.6.1-.9l2.3-9.4h-4.2l-2 8.1c-.1.4-.2.8-.2 1.3 0 2 1.3 3.3 3.4 3.3 1.5 0 2.9-.7 4-2 .2 1.2 1.3 2 2.8 2 1.7 0 2.9-.8 3.7-2.5l.1-.3-.8-.5-.1.3zm40.4-14.3 2.1 1.3 1.3 8.9-8.3-10.2h-7.1l2.3 1.4-.4 15.1h-1.3v.3h5.9v-.3h-2.8l-1-13.8 12 14.1h1.2V36.6l2.1-1.3zm12.2 4.9c-3.8 0-6.4 2.7-6.4 6 0 3.8 3.1 6.1 6.4 6.1 4.4 0 6.6-2.7 6.6-6.1 0-3.6-2.8-6-6.6-6zm2.6 11.3c-1.9 0-5.9-7-5.9-9.3 0-.7.3-1.1.9-1.1 2.1 0 6 7.3 6 9.3 0 .7-.3 1.1-1 1.1zm13.8-11.9c-1.3 0-2.4.7-2.9 2.1l-.2.4 1.2.7.3-.6c.3-.8.8-1.2 1.6-1.2 1.5 0 1.6 1.6 1.6 2.2 0 1.8-.7 3.7-1.9 5.3-1.2 1.6-2.7 2.5-4.1 2.5-.7 0-1.4-.2-1.4-1.8 0-.5.1-1.1.3-1.9l1.9-7.5h-3.2l-1.8 7c-.2.7-.2 1.3-.2 1.8 0 2.4 1.5 3.8 3.9 3.8 2.1 0 4.2-1.1 5.7-3.1 1.4-1.8 2.3-4.1 2.3-6.2-.1-2.2-1.2-3.5-3.1-3.5zm13.4 8.9-1.3-.4-.2.5c-.7 1.6-2.2 2.5-3.8 2.5-.7 0-1.2-.2-1.6-.7-.4-.5-.7-1.3-.7-2.3 0-.4 0-.8.1-1.2 2.2-.1 4-.4 5.4-.9 1.9-.7 2.8-1.9 2.8-3.4 0-.9-.4-1.6-1.1-2.2-.7-.5-1.7-.8-2.8-.8-2 0-3.9.9-5.3 2.5-1.4 1.5-2.2 3.5-2.2 5.5 0 1.5.5 2.7 1.5 3.6.9.9 2.2 1.3 3.5 1.3 2.4 0 4.5-1.3 5.5-3.5l.2-.5zm-3.5-3.9c-.9.5-2.1.8-3.7.9.3-1.2.8-2.2 1.4-3 .5-.7 1.4-1.5 2.6-1.5.9 0 1.2.3 1.2 1.1 0 1.1-.5 1.9-1.5 2.5zm22.9 5.1c-.3.7-.8 1.2-1.2 1.2-.1 0-.2 0-.2-.3 0-.1 0-.3.1-.4l1.5-5.9c.1-.5.2-.9.2-1.4 0-2-1.3-3.3-3.3-3.3-1.5 0-3.1.8-4.2 2.1-.1-.4-.4-.8-.7-1.1-.6-.6-1.4-1-2.5-1-1.2 0-2.4.5-3.4 1.3l.2-1.1h-3.2l-3.1 12.5h3.2l1.8-7.2c.6-2.4 2.4-3.9 3.8-3.9.7 0 .9.2.9.9 0 .4-.1.8-.2 1.3l-2.2 8.9h3.2l1.8-7.2c.6-2.4 2.4-3.9 3.8-3.9.7 0 .9.2.9.9 0 .4-.1.8-.2 1.3l-1.4 5.7c-.1.3-.1.6-.1.9 0 1.5 1 2.4 2.5 2.4 1.4 0 2.6-.8 3.2-2.2l.2-.5-1.2-.5-.2.5zm9-9.5c-.8 0-1.6.2-2.2.5-.5.2-.9.5-1.1.8v-6.4h-3.3v17.1h3.3v-1.1c.7.9 1.8 1.4 3.3 1.4 1.6 0 3-.6 4-1.8 1-1.2 1.5-2.7 1.5-4.4 0-1.8-.5-3.3-1.5-4.4-1-1.1-2.4-1.7-4-1.7zm1.3 8.5c-.5.6-1.2.8-1.9.8-.8 0-1.4-.3-1.9-.8-.5-.6-.8-1.3-.8-2.3 0-1 .3-1.7.8-2.3.5-.5 1.2-.8 2-.8s1.4.3 1.9.8.8 1.3.8 2.3c-.2.9-.4 1.7-.9 2.3zm11.2-8.5c-1.6 0-2.9.6-4.1 1.7-1.1 1.1-1.7 2.6-1.7 4.4 0 1.9.6 3.4 1.8 4.6 1.2 1.1 2.6 1.7 4.3 1.7 1.4 0 2.5-.4 3.5-1.1.9-.7 1.6-1.6 1.9-2.7v-.1l-2.8-.8v.1c-.4 1.1-1.2 1.7-2.5 1.7-.7 0-1.4-.2-1.9-.7-.5-.4-.8-1-.8-1.6h8.2v-1.1c0-1.9-.5-3.4-1.5-4.5-1.2-1.1-2.6-1.6-4.4-1.6zm-2.4 4.7c.1-.5.3-.9.7-1.3.4-.4 1-.7 1.7-.7.8 0 1.4.2 1.8.6.4.4.6.8.6 1.4h-4.8zm17.3-4.4h-.7c-1.4 0-2.5.5-3.1 1.4v-1.3h-3.3v11.7h3.4v-5.4c0-1.1.3-1.9.8-2.4s1.2-.7 2.1-.7c.3 0 .6 0 .9.1h.2v-3.4h-.3z"/></svg>